<svg width="1293" height="900" viewBox="0 0 1293 900" fill="none" xmlns="http://www.w3.org/2000/svg">
<path d="M1506 297.6C1426.05 297.6 1349.62 265.921 1293.05 209.352C1236.48 152.783 1204.8 76.3512 1204.8 -3.6001H1506V297.6Z" fill="#03EB70"/>
<path d="M1204.8 -3.6001C1204.8 76.3512 1173.12 152.783 1116.55 209.352C1059.98 265.921 983.551 297.6 903.6 297.6V-3.6001H1204.8Z" fill="#7A1CCA"/>
<path d="M1204.8 900C1124.85 900 1048.42 868.321 991.848 811.752C935.279 755.183 903.6 678.751 903.6 595H1204.8V900Z" fill="#03EB70"/>
<path d="M903.6 598.8C903.6 518.849 935.279 442.417 991.848 385.848C1048.42 329.279 1124.85 297.6 1204.8 297.6V598.8H903.6Z" fill="#03EB70"/>
<path d="M602.4 297.6C682.351 297.6 758.783 329.279 815.352 385.848C871.921 442.417 903.6 518.849 903.6 598.8H602.4V297.6Z" fill="#03EB70"/>
<path d="M903.6 598.8C903.6 678.751 871.921 755.183 815.352 811.752C758.783 868.321 682.351 900 602.4 900V598.8H903.6Z" fill="#7A1CCA"/>
<path d="M0 598.8C0 518.849 31.6788 442.417 88.2481 385.848C144.817 329.279 221.249 297.6 301.8 297.6V598.8H0Z" fill="#03EB70"/>
<path d="M301.2 297.6C381.151 297.6 457.583 329.279 514.152 385.848C570.721 442.417 602.4 518.849 602.4 598.8H301.2V297.6Z" fill="#03EB70"/>
<path d="M602.4 -3.6001C602.4 76.3512 570.721 152.783 514.152 209.352C457.583 265.921 381.151 297.6 301.2 297.6V-3.6001H602.4Z" fill="#7A1CCA"/>
<path d="M301.2 297.6C221.249 297.6 144.817 265.921 88.2481 209.352C31.6788 152.783 0 76.3512 0 -3.6001H301.2V297.6Z" fill="#03EB70"/>
</svg>
